<svg width="258" height="114" viewBox="0 0 258 114" fill="none" xmlns="http://www.w3.org/2000/svg">
<path d="M30.78 86.62C26.19 86.62 21.816 85.189 17.658 82.327C13.554 79.411 10.26 75.523 7.776 70.663C5.292 65.803 4.05 60.592 4.05 55.03C4.05 48.982 5.238 43.555 7.614 38.749C9.99 33.943 13.23 30.19 17.334 27.49C21.438 24.79 26.001 23.44 31.023 23.44C33.831 23.44 37.044 24.196 40.662 25.708C44.334 27.22 46.899 28.948 48.357 30.892L49.572 24.817H50.949V42.88H49.248C49.248 40.072 48.384 37.291 46.656 34.537C44.982 31.783 42.66 29.515 39.69 27.733C36.72 25.951 33.453 25.06 29.889 25.06C26.217 25.06 22.95 26.356 20.088 28.948C17.226 31.54 14.985 35.104 13.365 39.64C11.745 44.122 10.935 49.144 10.935 54.706C10.935 60.052 11.718 65.047 13.284 69.691C14.904 74.281 17.334 77.98 20.574 80.788C23.868 83.596 27.864 85 32.562 85C36.018 85 39.177 84.001 42.039 82.003C44.901 80.005 47.034 77.413 48.438 74.227C48.6 73.849 48.924 72.742 49.41 70.906C49.788 69.286 50.166 67.936 50.544 66.856C50.976 65.722 51.543 64.723 52.245 63.859H53.379C52.515 64.615 51.894 66.019 51.516 68.071C51.192 70.123 51.03 72.958 51.03 76.576C51.03 77.872 49.977 79.33 47.871 80.95C45.819 82.516 43.2 83.866 40.014 85C36.882 86.08 33.804 86.62 30.78 86.62ZM89.1576 66.694C88.4016 67.396 87.8886 68.503 87.6186 70.015C87.4026 71.527 87.2946 73.768 87.2946 76.738V85H54.9756V82.975C56.0016 83.299 56.9466 83.461 57.8106 83.461C58.8366 83.461 59.6196 83.191 60.1596 82.651C60.7536 82.057 61.0506 81.22 61.0506 80.14V29.92C61.0506 28.84 60.7536 28.03 60.1596 27.49C59.6196 26.896 58.8366 26.599 57.8106 26.599C56.9466 26.599 56.0016 26.761 54.9756 27.085V25.06H73.2006V27.085C72.1746 26.761 71.2296 26.599 70.3656 26.599C69.3396 26.599 68.5296 26.896 67.9356 27.49C67.3956 28.03 67.1256 28.84 67.1256 29.92V74.875C67.1256 78.061 67.6656 80.41 68.7456 81.922C69.8256 83.434 71.7156 84.19 74.4156 84.19C77.4396 84.19 79.7076 83.785 81.2196 82.975C82.7316 82.111 83.7306 81.058 84.2166 79.816C84.7026 78.52 85.1076 76.711 85.4316 74.389C85.6476 72.607 85.8906 71.149 86.1606 70.015C86.4306 68.881 86.9166 67.774 87.6186 66.694H89.1576ZM132 81.76C132.378 83.164 133.35 83.866 134.916 83.866C135.942 83.866 137.292 83.569 138.966 82.975V85H119.445V82.975C121.011 83.515 122.361 83.785 123.495 83.785C124.791 83.785 125.439 83.326 125.439 82.408C125.439 82.138 125.412 81.922 125.358 81.76L118.068 58.675H100.896C98.9516 65.155 97.0886 71.635 95.3066 78.115L94.7396 80.14C94.6316 80.464 94.5776 80.869 94.5776 81.355C94.5776 82.921 95.5496 83.704 97.4936 83.704C98.5736 83.704 99.8156 83.461 101.22 82.975V85H84.2906V82.975C85.5866 83.461 86.8286 83.704 88.0166 83.704C89.6366 83.704 90.7976 83.056 91.4996 81.76C91.8776 81.004 92.2016 80.221 92.4716 79.411L109.644 23.44H114.342L132 81.76ZM101.301 57.217H117.582L109.158 30.649L101.301 57.217ZM156.605 86.62C152.663 86.62 149.504 85.972 147.128 84.676C144.806 83.326 142.781 81.328 141.053 78.682L139.919 83.461H138.299V61.429H140.486C140.486 68.773 141.755 74.578 144.293 78.844C146.885 83.11 150.719 85.243 155.795 85.243C158.171 85.243 160.25 84.595 162.032 83.299C163.814 81.949 165.164 80.194 166.082 78.034C167 75.874 167.459 73.579 167.459 71.149C167.459 68.179 166.784 65.722 165.434 63.778C164.138 61.78 162.518 60.214 160.574 59.08C158.63 57.946 156.065 56.704 152.879 55.354C149.585 53.95 146.966 52.681 145.022 51.547C143.078 50.359 141.431 48.793 140.081 46.849C138.785 44.851 138.137 42.34 138.137 39.316C138.137 36.292 138.839 33.565 140.243 31.135C141.701 28.705 143.645 26.815 146.075 25.465C148.559 24.115 151.34 23.44 154.418 23.44C156.308 23.44 158.171 23.764 160.007 24.412C161.897 25.06 163.49 25.897 164.786 26.923C166.082 27.895 166.865 28.867 167.135 29.839L168.026 23.602H169.565V39.721H167.702C167.702 37.291 167.27 34.969 166.406 32.755C165.542 30.541 164.192 28.732 162.356 27.328C160.574 25.924 158.36 25.222 155.714 25.222C152.312 25.222 149.531 26.356 147.371 28.624C145.265 30.892 144.212 34.051 144.212 38.101C144.212 40.423 144.806 42.394 145.994 44.014C147.182 45.58 148.64 46.876 150.368 47.902C152.15 48.928 154.526 50.116 157.496 51.466C160.952 53.032 163.733 54.49 165.839 55.84C167.999 57.136 169.808 58.918 171.266 61.186C172.778 63.4 173.534 66.181 173.534 69.529C173.534 72.229 172.751 74.929 171.185 77.629C169.619 80.275 167.54 82.435 164.948 84.109C162.356 85.783 159.575 86.62 156.605 86.62ZM196.87 86.62C192.928 86.62 189.769 85.972 187.393 84.676C185.071 83.326 183.046 81.328 181.318 78.682L180.184 83.461H178.564V61.429H180.751C180.751 68.773 182.02 74.578 184.558 78.844C187.15 83.11 190.984 85.243 196.06 85.243C198.436 85.243 200.515 84.595 202.297 83.299C204.079 81.949 205.429 80.194 206.347 78.034C207.265 75.874 207.724 73.579 207.724 71.149C207.724 68.179 207.049 65.722 205.699 63.778C204.403 61.78 202.783 60.214 200.839 59.08C198.895 57.946 196.33 56.704 193.144 55.354C189.85 53.95 187.231 52.681 185.287 51.547C183.343 50.359 181.696 48.793 180.346 46.849C179.05 44.851 178.402 42.34 178.402 39.316C178.402 36.292 179.104 33.565 180.508 31.135C181.966 28.705 183.91 26.815 186.34 25.465C188.824 24.115 191.605 23.44 194.683 23.44C196.573 23.44 198.436 23.764 200.272 24.412C202.162 25.06 203.755 25.897 205.051 26.923C206.347 27.895 207.13 28.867 207.4 29.839L208.291 23.602H209.83V39.721H207.967C207.967 37.291 207.535 34.969 206.671 32.755C205.807 30.541 204.457 28.732 202.621 27.328C200.839 25.924 198.625 25.222 195.979 25.222C192.577 25.222 189.796 26.356 187.636 28.624C185.53 30.892 184.477 34.051 184.477 38.101C184.477 40.423 185.071 42.394 186.259 44.014C187.447 45.58 188.905 46.876 190.633 47.902C192.415 48.928 194.791 50.116 197.761 51.466C201.217 53.032 203.998 54.49 206.104 55.84C208.264 57.136 210.073 58.918 211.531 61.186C213.043 63.4 213.799 66.181 213.799 69.529C213.799 72.229 213.016 74.929 211.45 77.629C209.884 80.275 207.805 82.435 205.213 84.109C202.621 85.783 199.84 86.62 196.87 86.62ZM217.858 82.975C218.884 83.299 219.829 83.461 220.693 83.461C221.719 83.461 222.502 83.191 223.042 82.651C223.636 82.057 223.933 81.22 223.933 80.14V29.92C223.933 28.84 223.636 28.03 223.042 27.49C222.502 26.896 221.719 26.599 220.693 26.599C219.829 26.599 218.884 26.761 217.858 27.085V25.06H236.083V27.085C235.057 26.761 234.112 26.599 233.248 26.599C232.222 26.599 231.412 26.896 230.818 27.49C230.278 28.03 230.008 28.84 230.008 29.92V80.14C230.008 81.22 230.278 82.057 230.818 82.651C231.412 83.191 232.222 83.461 233.248 83.461C234.112 83.461 235.057 83.299 236.083 82.975V85H217.858V82.975ZM246.588 85.81C245.562 85.81 244.617 85.459 243.753 84.757C242.943 84.055 242.538 83.191 242.538 82.165C242.538 81.193 242.943 80.356 243.753 79.654C244.617 78.898 245.562 78.52 246.588 78.52C247.614 78.52 248.532 78.898 249.342 79.654C250.206 80.356 250.638 81.193 250.638 82.165C250.638 83.191 250.206 84.055 249.342 84.757C248.532 85.459 247.614 85.81 246.588 85.81Z" fill="#111111"/>
</svg>
