<svg width="247" height="64" viewBox="0 0 247 64" fill="none" xmlns="http://www.w3.org/2000/svg">
<path d="M26.7795 63.62C22.1895 63.62 17.8155 62.189 13.6575 59.327C9.55351 56.411 6.25951 52.523 3.77551 47.663C1.29151 42.803 0.0495118 37.592 0.0495118 32.03C0.0495118 25.982 1.23751 20.555 3.61351 15.749C5.98951 10.943 9.22951 7.19 13.3335 4.49C17.4375 1.79 22.0005 0.439996 27.0225 0.439996C29.8305 0.439996 33.0435 1.196 36.6615 2.708C40.3335 4.22 42.8985 5.948 44.3565 7.892L45.5715 1.817H46.9485V19.88H45.2475C45.2475 17.072 44.3835 14.291 42.6555 11.537C40.9815 8.783 38.6595 6.515 35.6895 4.733C32.7195 2.951 29.4525 2.06 25.8885 2.06C22.2165 2.06 18.9495 3.356 16.0875 5.948C13.2255 8.54 10.9845 12.104 9.36451 16.64C7.74451 21.122 6.93451 26.144 6.93451 31.706C6.93451 37.052 7.71751 42.047 9.28351 46.691C10.9035 51.281 13.3335 54.98 16.5735 57.788C19.8675 60.596 23.8635 62 28.5615 62C32.0175 62 35.1765 61.001 38.0385 59.003C40.9005 57.005 43.0335 54.413 44.4375 51.227C44.5995 50.849 44.9235 49.742 45.4095 47.906C45.7875 46.286 46.1655 44.936 46.5435 43.856C46.9755 42.722 47.5425 41.723 48.2445 40.859H49.3785C48.5145 41.615 47.8935 43.019 47.5155 45.071C47.1915 47.123 47.0295 49.958 47.0295 53.576C47.0295 54.872 45.9765 56.33 43.8705 57.95C41.8185 59.516 39.1995 60.866 36.0135 62C32.8815 63.08 29.8035 63.62 26.7795 63.62ZM85.1571 43.694C84.4011 44.396 83.8881 45.503 83.6181 47.015C83.4021 48.527 83.2941 50.768 83.2941 53.738V62H50.9751V59.975C52.0011 60.299 52.9461 60.461 53.8101 60.461C54.8361 60.461 55.6191 60.191 56.1591 59.651C56.7531 59.057 57.0501 58.22 57.0501 57.14V6.92C57.0501 5.84 56.7531 5.03 56.1591 4.49C55.6191 3.896 54.8361 3.599 53.8101 3.599C52.9461 3.599 52.0011 3.761 50.9751 4.085V2.06H69.2001V4.085C68.1741 3.761 67.2291 3.599 66.3651 3.599C65.3391 3.599 64.5291 3.896 63.9351 4.49C63.3951 5.03 63.1251 5.84 63.1251 6.92V51.875C63.1251 55.061 63.6651 57.41 64.7451 58.922C65.8251 60.434 67.7151 61.19 70.4151 61.19C73.4391 61.19 75.7071 60.785 77.2191 59.975C78.7311 59.111 79.7301 58.058 80.2161 56.816C80.7021 55.52 81.1071 53.711 81.4311 51.389C81.6471 49.607 81.8901 48.149 82.1601 47.015C82.4301 45.881 82.9161 44.774 83.6181 43.694H85.1571ZM127.999 58.76C128.377 60.164 129.349 60.866 130.915 60.866C131.941 60.866 133.291 60.569 134.965 59.975V62H115.444V59.975C117.01 60.515 118.36 60.785 119.494 60.785C120.79 60.785 121.438 60.326 121.438 59.408C121.438 59.138 121.411 58.922 121.357 58.76L114.067 35.675H96.8951C94.9511 42.155 93.0881 48.635 91.3061 55.115L90.7391 57.14C90.6311 57.464 90.5771 57.869 90.5771 58.355C90.5771 59.921 91.5491 60.704 93.4931 60.704C94.5731 60.704 95.8151 60.461 97.2191 59.975V62H80.2901V59.975C81.5861 60.461 82.8281 60.704 84.0161 60.704C85.6361 60.704 86.7971 60.056 87.4991 58.76C87.8771 58.004 88.2011 57.221 88.4711 56.411L105.643 0.439996H110.341L127.999 58.76ZM97.3001 34.217H113.581L105.157 7.649L97.3001 34.217ZM152.604 63.62C148.662 63.62 145.503 62.972 143.127 61.676C140.805 60.326 138.78 58.328 137.052 55.682L135.918 60.461H134.298V38.429H136.485C136.485 45.773 137.754 51.578 140.292 55.844C142.884 60.11 146.718 62.243 151.794 62.243C154.17 62.243 156.249 61.595 158.031 60.299C159.813 58.949 161.163 57.194 162.081 55.034C162.999 52.874 163.458 50.579 163.458 48.149C163.458 45.179 162.783 42.722 161.433 40.778C160.137 38.78 158.517 37.214 156.573 36.08C154.629 34.946 152.064 33.704 148.878 32.354C145.584 30.95 142.965 29.681 141.021 28.547C139.077 27.359 137.43 25.793 136.08 23.849C134.784 21.851 134.136 19.34 134.136 16.316C134.136 13.292 134.838 10.565 136.242 8.135C137.7 5.705 139.644 3.815 142.074 2.465C144.558 1.115 147.339 0.439996 150.417 0.439996C152.307 0.439996 154.17 0.763997 156.006 1.412C157.896 2.06 159.489 2.897 160.785 3.923C162.081 4.895 162.864 5.867 163.134 6.839L164.025 0.601999H165.564V16.721H163.701C163.701 14.291 163.269 11.969 162.405 9.755C161.541 7.541 160.191 5.732 158.355 4.328C156.573 2.924 154.359 2.222 151.713 2.222C148.311 2.222 145.53 3.356 143.37 5.624C141.264 7.892 140.211 11.051 140.211 15.101C140.211 17.423 140.805 19.394 141.993 21.014C143.181 22.58 144.639 23.876 146.367 24.902C148.149 25.928 150.525 27.116 153.495 28.466C156.951 30.032 159.732 31.49 161.838 32.84C163.998 34.136 165.807 35.918 167.265 38.186C168.777 40.4 169.533 43.181 169.533 46.529C169.533 49.229 168.75 51.929 167.184 54.629C165.618 57.275 163.539 59.435 160.947 61.109C158.355 62.783 155.574 63.62 152.604 63.62ZM192.87 63.62C188.928 63.62 185.769 62.972 183.393 61.676C181.071 60.326 179.046 58.328 177.318 55.682L176.184 60.461H174.564V38.429H176.751C176.751 45.773 178.02 51.578 180.558 55.844C183.15 60.11 186.984 62.243 192.06 62.243C194.436 62.243 196.515 61.595 198.297 60.299C200.079 58.949 201.429 57.194 202.347 55.034C203.265 52.874 203.724 50.579 203.724 48.149C203.724 45.179 203.049 42.722 201.699 40.778C200.403 38.78 198.783 37.214 196.839 36.08C194.895 34.946 192.33 33.704 189.144 32.354C185.85 30.95 183.231 29.681 181.287 28.547C179.343 27.359 177.696 25.793 176.346 23.849C175.05 21.851 174.402 19.34 174.402 16.316C174.402 13.292 175.104 10.565 176.508 8.135C177.966 5.705 179.91 3.815 182.34 2.465C184.824 1.115 187.605 0.439996 190.683 0.439996C192.573 0.439996 194.436 0.763997 196.272 1.412C198.162 2.06 199.755 2.897 201.051 3.923C202.347 4.895 203.13 5.867 203.4 6.839L204.291 0.601999H205.83V16.721H203.967C203.967 14.291 203.535 11.969 202.671 9.755C201.807 7.541 200.457 5.732 198.621 4.328C196.839 2.924 194.625 2.222 191.979 2.222C188.577 2.222 185.796 3.356 183.636 5.624C181.53 7.892 180.477 11.051 180.477 15.101C180.477 17.423 181.071 19.394 182.259 21.014C183.447 22.58 184.905 23.876 186.633 24.902C188.415 25.928 190.791 27.116 193.761 28.466C197.217 30.032 199.998 31.49 202.104 32.84C204.264 34.136 206.073 35.918 207.531 38.186C209.043 40.4 209.799 43.181 209.799 46.529C209.799 49.229 209.016 51.929 207.45 54.629C205.884 57.275 203.805 59.435 201.213 61.109C198.621 62.783 195.84 63.62 192.87 63.62ZM213.858 59.975C214.884 60.299 215.829 60.461 216.693 60.461C217.719 60.461 218.502 60.191 219.042 59.651C219.636 59.057 219.933 58.22 219.933 57.14V6.92C219.933 5.84 219.636 5.03 219.042 4.49C218.502 3.896 217.719 3.599 216.693 3.599C215.829 3.599 214.884 3.761 213.858 4.085V2.06H232.083V4.085C231.057 3.761 230.112 3.599 229.248 3.599C228.222 3.599 227.412 3.896 226.818 4.49C226.278 5.03 226.008 5.84 226.008 6.92V57.14C226.008 58.22 226.278 59.057 226.818 59.651C227.412 60.191 228.222 60.461 229.248 60.461C230.112 60.461 231.057 60.299 232.083 59.975V62H213.858V59.975ZM242.588 62.81C241.562 62.81 240.617 62.459 239.753 61.757C238.943 61.055 238.538 60.191 238.538 59.165C238.538 58.193 238.943 57.356 239.753 56.654C240.617 55.898 241.562 55.52 242.588 55.52C243.614 55.52 244.532 55.898 245.342 56.654C246.206 57.356 246.638 58.193 246.638 59.165C246.638 60.191 246.206 61.055 245.342 61.757C244.532 62.459 243.614 62.81 242.588 62.81Z" fill="white"/>
</svg>
